<svg width="60" height="60" viewBox="0 0 60 60" fill="none" xmlns="http://www.w3.org/2000/svg">
<rect width="60" height="60" rx="30" fill="#EFF3FD"/>
<path d="M35 39V37C35 35.9391 34.5786 34.9217 33.8284 34.1716C33.0783 33.4214 32.0609 33 31 33H23C21.9391 33 20.9217 33.4214 20.1716 34.1716C19.4214 34.9217 19 35.9391 19 37V39" stroke="#355BE4" stroke-width="2" stroke-linecap="round" stroke-linejoin="round"/>
<path d="M27 29C29.2091 29 31 27.2091 31 25C31 22.7909 29.2091 21 27 21C24.7909 21 23 22.7909 23 25C23 27.2091 24.7909 29 27 29Z" stroke="#355BE4" stroke-width="2" stroke-linecap="round" stroke-linejoin="round"/>
<path d="M41 39V37C40.9993 36.1137 40.7044 35.2528 40.1614 34.5523C39.6184 33.8519 38.8581 33.3516 38 33.13" stroke="#355BE4" stroke-width="2" stroke-linecap="round" stroke-linejoin="round"/>
<path d="M34 21.13C34.8604 21.3503 35.623 21.8507 36.1676 22.5523C36.7122 23.2539 37.0078 24.1168 37.0078 25.005C37.0078 25.8932 36.7122 26.7561 36.1676 27.4577C35.623 28.1593 34.8604 28.6597 34 28.88" stroke="#355BE4" stroke-width="2" stroke-linecap="round" stroke-linejoin="round"/>
</svg>
